  0
SECTION
  2
BLOCKS
  0
ENDSEC
  0
SECTION
  2
ENTITIES
  0
LINE
  8
0
 10
84.5
 20
446.75
 11
45.75
 21
446.75
  0
LINE
  8
0
 10
45.75
 20
446.75
 11
45.75
 21
452
  0
LINE
  8
0
 10
45.75
 20
452
 11
84.5
 21
452
  0
LINE
  8
0
 10
84.5
 20
452
 11
84.5
 21
566.75
  0
LINE
  8
0
 10
84.5
 20
566.75
 11
45.75
 21
566.75
  0
LINE
  8
0
 10
45.75
 20
566.75
 11
45.75
 21
572
  0
LINE
  8
0
 10
45.75
 20
572
 11
84.5
 21
572
  0
LINE
  8
0
 10
84.5
 20
572
 11
84.5
 21
578.75
  0
LINE
  8
0
 10
84.5
 20
578.75
 11
7
 21
578.75
  0
LINE
  8
0
 10
7
 20
578.75
 11
7
 21
435.99
  0
LINE
  8
0
 10
7
 20
435.99
 11
78.25
 21
435.99
  0
LINE
  8
0
 10
78.25
 20
435.99
 11
78.25
 21
427.99
  0
LINE
  8
0
 10
78.25
 20
427.99
 11
71.0616
 21
427.99
  0
LINE
  8
0
 10
71.0616
 20
427.99
 11
71.0616
 21
425.761
  0
LINE
  8
0
 10
71.0616
 20
425.761
 11
70.1083
 21
421.38
  0
LINE
  8
0
 10
70.1083
 20
421.38
 11
68.2434
 21
417.289
  0
LINE
  8
0
 10
68.2434
 20
417.289
 11
65.5485
 21
413.666
  0
LINE
  8
0
 10
65.5485
 20
413.666
 11
62.1411
 21
410.669
  0
LINE
  8
0
 10
62.1411
 20
410.669
 11
58.1704
 21
408.43
  0
LINE
  8
0
 10
58.1704
 20
408.43
 11
53.8099
 21
407.046
  0
LINE
  8
0
 10
53.8099
 20
407.046
 11
49.25
 21
406.578
  0
LINE
  8
0
 10
49.25
 20
406.578
 11
49.25
 21
392.75
  0
LINE
  8
0
 10
49.25
 20
392.75
 11
84.5
 21
392.75
  0
LINE
  8
0
 10
84.5
 20
392.75
 11
84.5
 21
446.75
  0
LINE
  8
0
 10
27.25
 20
531.167
 11
27.25
 21
555.5
  0
LINE
  8
0
 10
27.25
 20
555.5
 11
39.25
 21
555.5
  0
LINE
  8
0
 10
39.25
 20
555.5
 11
39.25
 21
531.167
  0
LINE
  8
0
 10
39.25
 20
531.167
 11
27.25
 21
531.167
  0
LINE
  8
0
 10
48.25
 20
531.167
 11
48.25
 21
555.5
  0
LINE
  8
0
 10
48.25
 20
555.5
 11
60.25
 21
555.5
  0
LINE
  8
0
 10
60.25
 20
555.5
 11
60.25
 21
531.167
  0
LINE
  8
0
 10
60.25
 20
531.167
 11
48.25
 21
531.167
  0
LINE
  8
0
 10
41.25
 20
496.167
 11
41.25
 21
520.5
  0
LINE
  8
0
 10
41.25
 20
520.5
 11
53.25
 21
520.5
  0
LINE
  8
0
 10
53.25
 20
520.5
 11
53.25
 21
496.167
  0
LINE
  8
0
 10
53.25
 20
496.167
 11
41.25
 21
496.167
  0
LINE
  8
0
 10
20.25
 20
496.167
 11
20.25
 21
520.5
  0
LINE
  8
0
 10
20.25
 20
520.5
 11
32.25
 21
520.5
  0
LINE
  8
0
 10
32.25
 20
520.5
 11
32.25
 21
496.167
  0
LINE
  8
0
 10
32.25
 20
496.167
 11
20.25
 21
496.167
  0
LINE
  8
0
 10
13.25
 20
461.167
 11
13.25
 21
485.5
  0
LINE
  8
0
 10
13.25
 20
485.5
 11
25.25
 21
485.5
  0
LINE
  8
0
 10
25.25
 20
485.5
 11
25.25
 21
461.167
  0
LINE
  8
0
 10
25.25
 20
461.167
 11
13.25
 21
461.167
  0
LINE
  8
0
 10
34.25
 20
461.167
 11
34.25
 21
485.5
  0
LINE
  8
0
 10
34.25
 20
485.5
 11
46.25
 21
485.5
  0
LINE
  8
0
 10
46.25
 20
485.5
 11
46.25
 21
461.167
  0
LINE
  8
0
 10
46.25
 20
461.167
 11
34.25
 21
461.167
  0
LINE
  8
0
 10
171.25
 20
561.365
 11
93.75
 21
561.365
  0
LINE
  8
0
 10
93.75
 20
561.365
 11
93.75
 21
541.25
  0
LINE
  8
0
 10
93.75
 20
541.25
 11
132.5
 21
541.25
  0
LINE
  8
0
 10
132.5
 20
541.25
 11
132.5
 21
536
  0
LINE
  8
0
 10
132.5
 20
536
 11
93.75
 21
536
  0
LINE
  8
0
 10
93.75
 20
536
 11
93.75
 21
503
  0
LINE
  8
0
 10
93.75
 20
503
 11
132.5
 21
503
  0
LINE
  8
0
 10
132.5
 20
503
 11
132.5
 21
497.75
  0
LINE
  8
0
 10
132.5
 20
497.75
 11
93.75
 21
497.75
  0
LINE
  8
0
 10
93.75
 20
497.75
 11
93.75
 21
464.75
  0
LINE
  8
0
 10
93.75
 20
464.75
 11
132.5
 21
464.75
  0
LINE
  8
0
 10
132.5
 20
464.75
 11
132.5
 21
459.5
  0
LINE
  8
0
 10
132.5
 20
459.5
 11
93.75
 21
459.5
  0
LINE
  8
0
 10
93.75
 20
459.5
 11
93.75
 21
426.5
  0
LINE
  8
0
 10
93.75
 20
426.5
 11
132.5
 21
426.5
  0
LINE
  8
0
 10
132.5
 20
426.5
 11
132.5
 21
421.25
  0
LINE
  8
0
 10
132.5
 20
421.25
 11
93.75
 21
421.25
  0
LINE
  8
0
 10
93.75
 20
421.25
 11
93.75
 21
394.99
  0
LINE
  8
0
 10
93.75
 20
394.99
 11
171.25
 21
394.99
  0
LINE
  8
0
 10
171.25
 20
394.99
 11
171.25
 21
561.365
  0
LINE
  8
0
 10
190.75
 20
352
 11
177.536
 21
352
  0
LINE
  8
0
 10
177.536
 20
352
 11
177.055
 21
347.309
  0
LINE
  8
0
 10
177.055
 20
347.309
 11
175.631
 21
342.824
  0
LINE
  8
0
 10
175.631
 20
342.824
 11
173.328
 21
338.739
  0
LINE
  8
0
 10
173.328
 20
338.739
 11
170.245
 21
335.234
  0
LINE
  8
0
 10
170.245
 20
335.234
 11
166.518
 21
332.462
  0
LINE
  8
0
 10
166.518
 20
332.462
 11
162.31
 21
330.543
  0
LINE
  8
0
 10
162.31
 20
330.543
 11
157.803
 21
329.563
  0
LINE
  8
0
 10
157.803
 20
329.563
 11
155.51
 21
329.563
  0
LINE
  8
0
 10
155.51
 20
329.563
 11
155.51
 21
323
  0
LINE
  8
0
 10
155.51
 20
323
 11
147.51
 21
323
  0
LINE
  8
0
 10
147.51
 20
323
 11
147.51
 21
387.25
  0
LINE
  8
0
 10
147.51
 20
387.25
 11
136.75
 21
387.25
  0
LINE
  8
0
 10
136.75
 20
387.25
 11
136.75
 21
348.5
  0
LINE
  8
0
 10
136.75
 20
348.5
 11
131.5
 21
348.5
  0
LINE
  8
0
 10
131.5
 20
348.5
 11
131.5
 21
387.25
  0
LINE
  8
0
 10
131.5
 20
387.25
 11
16.75
 21
387.25
  0
LINE
  8
0
 10
16.75
 20
387.25
 11
16.75
 21
348.5
  0
LINE
  8
0
 10
16.75
 20
348.5
 11
11.5
 21
348.5
  0
LINE
  8
0
 10
11.5
 20
348.5
 11
11.5
 21
387.25
  0
LINE
  8
0
 10
11.5
 20
387.25
 11
4.75
 21
387.25
  0
LINE
  8
0
 10
4.75
 20
387.25
 11
4.75
 21
309.75
  0
LINE
  8
0
 10
4.75
 20
309.75
 11
190.75
 21
309.75
  0
LINE
  8
0
 10
190.75
 20
309.75
 11
190.75
 21
352
  0
LINE
  8
0
 10
28
 20
351
 11
28
 21
363
  0
LINE
  8
0
 10
28
 20
363
 11
52.3333
 21
363
  0
LINE
  8
0
 10
52.3333
 20
363
 11
52.3333
 21
351
  0
LINE
  8
0
 10
52.3333
 20
351
 11
28
 21
351
  0
LINE
  8
0
 10
63
 20
344
 11
63
 21
356
  0
LINE
  8
0
 10
63
 20
356
 11
87.3333
 21
356
  0
LINE
  8
0
 10
87.3333
 20
356
 11
87.3333
 21
344
  0
LINE
  8
0
 10
87.3333
 20
344
 11
63
 21
344
  0
LINE
  8
0
 10
98
 20
337
 11
98
 21
349
  0
LINE
  8
0
 10
98
 20
349
 11
122.333
 21
349
  0
LINE
  8
0
 10
122.333
 20
349
 11
122.333
 21
337
  0
LINE
  8
0
 10
122.333
 20
337
 11
98
 21
337
  0
LINE
  8
0
 10
28
 20
330
 11
28
 21
342
  0
LINE
  8
0
 10
28
 20
342
 11
52.3333
 21
342
  0
LINE
  8
0
 10
52.3333
 20
342
 11
52.3333
 21
330
  0
LINE
  8
0
 10
52.3333
 20
330
 11
28
 21
330
  0
LINE
  8
0
 10
63
 20
323
 11
63
 21
335
  0
LINE
  8
0
 10
63
 20
335
 11
87.3333
 21
335
  0
LINE
  8
0
 10
87.3333
 20
335
 11
87.3333
 21
323
  0
LINE
  8
0
 10
87.3333
 20
323
 11
63
 21
323
  0
LINE
  8
0
 10
98
 20
316
 11
98
 21
328
  0
LINE
  8
0
 10
98
 20
328
 11
122.333
 21
328
  0
LINE
  8
0
 10
122.333
 20
328
 11
122.333
 21
316
  0
LINE
  8
0
 10
122.333
 20
316
 11
98
 21
316
  0
LINE
  8
0
 10
191
 20
259
 11
178.401
 21
259
  0
LINE
  8
0
 10
178.401
 20
259
 11
177.906
 21
254.179
  0
LINE
  8
0
 10
177.906
 20
254.179
 11
176.442
 21
249.568
  0
LINE
  8
0
 10
176.442
 20
249.568
 11
174.075
 21
245.369
  0
LINE
  8
0
 10
174.075
 20
245.369
 11
170.906
 21
241.766
  0
LINE
  8
0
 10
170.906
 20
241.766
 11
167.075
 21
238.917
  0
LINE
  8
0
 10
167.075
 20
238.917
 11
162.749
 21
236.945
  0
LINE
  8
0
 10
162.749
 20
236.945
 11
158.118
 21
235.937
  0
LINE
  8
0
 10
158.118
 20
235.937
 11
155.76
 21
235.937
  0
LINE
  8
0
 10
155.76
 20
235.937
 11
155.76
 21
230
  0
LINE
  8
0
 10
155.76
 20
230
 11
147.76
 21
230
  0
LINE
  8
0
 10
147.76
 20
230
 11
147.76
 21
294.25
  0
LINE
  8
0
 10
147.76
 20
294.25
 11
137
 21
294.25
  0
LINE
  8
0
 10
137
 20
294.25
 11
137
 21
255.5
  0
LINE
  8
0
 10
137
 20
255.5
 11
131.75
 21
255.5
  0
LINE
  8
0
 10
131.75
 20
255.5
 11
131.75
 21
294.25
  0
LINE
  8
0
 10
131.75
 20
294.25
 11
17
 21
294.25
  0
LINE
  8
0
 10
17
 20
294.25
 11
17
 21
255.5
  0
LINE
  8
0
 10
17
 20
255.5
 11
11.75
 21
255.5
  0
LINE
  8
0
 10
11.75
 20
255.5
 11
11.75
 21
294.25
  0
LINE
  8
0
 10
11.75
 20
294.25
 11
5
 21
294.25
  0
LINE
  8
0
 10
5
 20
294.25
 11
5
 21
216.75
  0
LINE
  8
0
 10
5
 20
216.75
 11
191
 21
216.75
  0
LINE
  8
0
 10
191
 20
216.75
 11
191
 21
259
  0
LINE
  8
0
 10
28.25
 20
258
 11
28.25
 21
270
  0
LINE
  8
0
 10
28.25
 20
270
 11
52.5833
 21
270
  0
LINE
  8
0
 10
52.5833
 20
270
 11
52.5833
 21
258
  0
LINE
  8
0
 10
52.5833
 20
258
 11
28.25
 21
258
  0
LINE
  8
0
 10
63.25
 20
251
 11
63.25
 21
263
  0
LINE
  8
0
 10
63.25
 20
263
 11
87.5833
 21
263
  0
LINE
  8
0
 10
87.5833
 20
263
 11
87.5833
 21
251
  0
LINE
  8
0
 10
87.5833
 20
251
 11
63.25
 21
251
  0
LINE
  8
0
 10
98.25
 20
244
 11
98.25
 21
256
  0
LINE
  8
0
 10
98.25
 20
256
 11
122.583
 21
256
  0
LINE
  8
0
 10
122.583
 20
256
 11
122.583
 21
244
  0
LINE
  8
0
 10
122.583
 20
244
 11
98.25
 21
244
  0
LINE
  8
0
 10
28.25
 20
237
 11
28.25
 21
249
  0
LINE
  8
0
 10
28.25
 20
249
 11
52.5833
 21
249
  0
LINE
  8
0
 10
52.5833
 20
249
 11
52.5833
 21
237
  0
LINE
  8
0
 10
52.5833
 20
237
 11
28.25
 21
237
  0
LINE
  8
0
 10
63.25
 20
230
 11
63.25
 21
242
  0
LINE
  8
0
 10
63.25
 20
242
 11
87.5833
 21
242
  0
LINE
  8
0
 10
87.5833
 20
242
 11
87.5833
 21
230
  0
LINE
  8
0
 10
87.5833
 20
230
 11
63.25
 21
230
  0
LINE
  8
0
 10
98.25
 20
223
 11
98.25
 21
235
  0
LINE
  8
0
 10
98.25
 20
235
 11
122.583
 21
235
  0
LINE
  8
0
 10
122.583
 20
235
 11
122.583
 21
223
  0
LINE
  8
0
 10
122.583
 20
223
 11
98.25
 21
223
  0
LINE
  8
0
 10
148.01
 20
204
 11
156.01
 21
204
  0
LINE
  8
0
 10
156.01
 20
204
 11
156.01
 21
198.689
  0
LINE
  8
0
 10
156.01
 20
198.689
 11
158.432
 21
198.689
  0
LINE
  8
0
 10
158.432
 20
198.689
 11
163.189
 21
197.653
  0
LINE
  8
0
 10
163.189
 20
197.653
 11
167.633
 21
195.628
  0
LINE
  8
0
 10
167.633
 20
195.628
 11
171.567
 21
192.701
  0
LINE
  8
0
 10
171.567
 20
192.701
 11
174.822
 21
189.001
  0
LINE
  8
0
 10
174.822
 20
189.001
 11
177.254
 21
184.688
  0
LINE
  8
0
 10
177.254
 20
184.688
 11
178.757
 21
179.952
  0
LINE
  8
0
 10
178.757
 20
179.952
 11
179.265
 21
175
  0
LINE
  8
0
 10
179.265
 20
175
 11
191.25
 21
175
  0
LINE
  8
0
 10
191.25
 20
175
 11
191.25
 21
210.25
  0
LINE
  8
0
 10
191.25
 20
210.25
 11
137.25
 21
210.25
  0
LINE
  8
0
 10
137.25
 20
210.25
 11
137.25
 21
171.5
  0
LINE
  8
0
 10
137.25
 20
171.5
 11
132
 21
171.5
  0
LINE
  8
0
 10
132
 20
171.5
 11
132
 21
210.25
  0
LINE
  8
0
 10
132
 20
210.25
 11
17.25
 21
210.25
  0
LINE
  8
0
 10
17.25
 20
210.25
 11
17.25
 21
171.5
  0
LINE
  8
0
 10
17.25
 20
171.5
 11
12
 21
171.5
  0
LINE
  8
0
 10
12
 20
171.5
 11
12
 21
210.25
  0
LINE
  8
0
 10
12
 20
210.25
 11
5.25
 21
210.25
  0
LINE
  8
0
 10
5.25
 20
210.25
 11
5.25
 21
132.75
  0
LINE
  8
0
 10
5.25
 20
132.75
 11
148.01
 21
132.75
  0
LINE
  8
0
 10
148.01
 20
132.75
 11
148.01
 21
204
  0
LINE
  8
0
 10
28.5
 20
174
 11
28.5
 21
186
  0
LINE
  8
0
 10
28.5
 20
186
 11
52.8333
 21
186
  0
LINE
  8
0
 10
52.8333
 20
186
 11
52.8333
 21
174
  0
LINE
  8
0
 10
52.8333
 20
174
 11
28.5
 21
174
  0
LINE
  8
0
 10
63.5
 20
167
 11
63.5
 21
179
  0
LINE
  8
0
 10
63.5
 20
179
 11
87.8333
 21
179
  0
LINE
  8
0
 10
87.8333
 20
179
 11
87.8333
 21
167
  0
LINE
  8
0
 10
87.8333
 20
167
 11
63.5
 21
167
  0
LINE
  8
0
 10
98.5
 20
160
 11
98.5
 21
172
  0
LINE
  8
0
 10
98.5
 20
172
 11
122.833
 21
172
  0
LINE
  8
0
 10
122.833
 20
172
 11
122.833
 21
160
  0
LINE
  8
0
 10
122.833
 20
160
 11
98.5
 21
160
  0
LINE
  8
0
 10
28.5
 20
153
 11
28.5
 21
165
  0
LINE
  8
0
 10
28.5
 20
165
 11
52.8333
 21
165
  0
LINE
  8
0
 10
52.8333
 20
165
 11
52.8333
 21
153
  0
LINE
  8
0
 10
52.8333
 20
153
 11
28.5
 21
153
  0
LINE
  8
0
 10
63.5
 20
146
 11
63.5
 21
158
  0
LINE
  8
0
 10
63.5
 20
158
 11
87.8333
 21
158
  0
LINE
  8
0
 10
87.8333
 20
158
 11
87.8333
 21
146
  0
LINE
  8
0
 10
87.8333
 20
146
 11
63.5
 21
146
  0
LINE
  8
0
 10
98.5
 20
139
 11
98.5
 21
151
  0
LINE
  8
0
 10
98.5
 20
151
 11
122.833
 21
151
  0
LINE
  8
0
 10
122.833
 20
151
 11
122.833
 21
139
  0
LINE
  8
0
 10
122.833
 20
139
 11
98.5
 21
139
  0
LINE
  8
0
 10
249.25
 20
23.75
 11
210.5
 21
23.75
  0
LINE
  8
0
 10
210.5
 20
23.75
 11
210.5
 21
29
  0
LINE
  8
0
 10
210.5
 20
29
 11
249.25
 21
29
  0
LINE
  8
0
 10
249.25
 20
29
 11
249.25
 21
62
  0
LINE
  8
0
 10
249.25
 20
62
 11
210.5
 21
62
  0
LINE
  8
0
 10
210.5
 20
62
 11
210.5
 21
67.25
  0
LINE
  8
0
 10
210.5
 20
67.25
 11
249.25
 21
67.25
  0
LINE
  8
0
 10
249.25
 20
67.25
 11
249.25
 21
100.25
  0
LINE
  8
0
 10
249.25
 20
100.25
 11
210.5
 21
100.25
  0
LINE
  8
0
 10
210.5
 20
100.25
 11
210.5
 21
105.5
  0
LINE
  8
0
 10
210.5
 20
105.5
 11
249.25
 21
105.5
  0
LINE
  8
0
 10
249.25
 20
105.5
 11
249.25
 21
138.5
  0
LINE
  8
0
 10
249.25
 20
138.5
 11
210.5
 21
138.5
  0
LINE
  8
0
 10
210.5
 20
138.5
 11
210.5
 21
143.75
  0
LINE
  8
0
 10
210.5
 20
143.75
 11
249.25
 21
143.75
  0
LINE
  8
0
 10
249.25
 20
143.75
 11
249.25
 21
170.01
  0
LINE
  8
0
 10
249.25
 20
170.01
 11
171.75
 21
170.01
  0
LINE
  8
0
 10
171.75
 20
170.01
 11
171.75
 21
3.63499
  0
LINE
  8
0
 10
171.75
 20
3.63499
 11
249.25
 21
3.63499
  0
LINE
  8
0
 10
249.25
 20
3.63499
 11
249.25
 21
23.75
  0
LINE
  8
0
 10
207.062
 20
163.194
 11
207.062
 21
167.181
  0
LINE
  8
0
 10
207.062
 20
167.181
 11
213.937
 21
167.181
  0
LINE
  8
0
 10
213.937
 20
167.181
 11
213.937
 21
163.194
  0
LINE
  8
0
 10
213.937
 20
163.194
 11
207.062
 21
163.194
  0
LINE
  8
0
 10
186.062
 20
163.194
 11
186.062
 21
167.181
  0
LINE
  8
0
 10
186.062
 20
167.181
 11
192.937
 21
167.181
  0
LINE
  8
0
 10
192.937
 20
167.181
 11
192.937
 21
163.194
  0
LINE
  8
0
 10
192.937
 20
163.194
 11
186.062
 21
163.194
  0
LINE
  8
0
 10
214.062
 20
159.569
 11
214.062
 21
163.556
  0
LINE
  8
0
 10
214.062
 20
163.556
 11
220.937
 21
163.556
  0
LINE
  8
0
 10
220.937
 20
163.556
 11
220.937
 21
159.569
  0
LINE
  8
0
 10
220.937
 20
159.569
 11
214.062
 21
159.569
  0
LINE
  8
0
 10
193.062
 20
159.569
 11
193.062
 21
163.556
  0
LINE
  8
0
 10
193.062
 20
163.556
 11
199.937
 21
163.556
  0
LINE
  8
0
 10
199.937
 20
163.556
 11
199.937
 21
159.569
  0
LINE
  8
0
 10
199.937
 20
159.569
 11
193.062
 21
159.569
  0
LINE
  8
0
 10
221.062
 20
155.944
 11
221.062
 21
159.931
  0
LINE
  8
0
 10
221.062
 20
159.931
 11
227.937
 21
159.931
  0
LINE
  8
0
 10
227.937
 20
159.931
 11
227.937
 21
155.944
  0
LINE
  8
0
 10
227.937
 20
155.944
 11
221.062
 21
155.944
  0
LINE
  8
0
 10
200.062
 20
155.944
 11
200.062
 21
159.931
  0
LINE
  8
0
 10
200.062
 20
159.931
 11
206.937
 21
159.931
  0
LINE
  8
0
 10
206.937
 20
159.931
 11
206.937
 21
155.944
  0
LINE
  8
0
 10
206.937
 20
155.944
 11
200.062
 21
155.944
  0
LINE
  8
0
 10
185.45
 20
124.944
 11
185.45
 21
128.931
  0
LINE
  8
0
 10
185.45
 20
128.931
 11
192.325
 21
128.931
  0
LINE
  8
0
 10
192.325
 20
128.931
 11
192.325
 21
124.944
  0
LINE
  8
0
 10
192.325
 20
124.944
 11
185.45
 21
124.944
  0
LINE
  8
0
 10
207.185
 20
124.944
 11
207.185
 21
128.931
  0
LINE
  8
0
 10
207.185
 20
128.931
 11
214.06
 21
128.931
  0
LINE
  8
0
 10
214.06
 20
128.931
 11
214.06
 21
124.944
  0
LINE
  8
0
 10
214.06
 20
124.944
 11
207.185
 21
124.944
  0
LINE
  8
0
 10
192.695
 20
121.319
 11
192.695
 21
125.306
  0
LINE
  8
0
 10
192.695
 20
125.306
 11
199.57
 21
125.306
  0
LINE
  8
0
 10
199.57
 20
125.306
 11
199.57
 21
121.319
  0
LINE
  8
0
 10
199.57
 20
121.319
 11
192.695
 21
121.319
  0
LINE
  8
0
 10
214.43
 20
121.319
 11
214.43
 21
125.306
  0
LINE
  8
0
 10
214.43
 20
125.306
 11
221.305
 21
125.306
  0
LINE
  8
0
 10
221.305
 20
125.306
 11
221.305
 21
121.319
  0
LINE
  8
0
 10
221.305
 20
121.319
 11
214.43
 21
121.319
  0
LINE
  8
0
 10
199.94
 20
117.694
 11
199.94
 21
121.681
  0
LINE
  8
0
 10
199.94
 20
121.681
 11
206.815
 21
121.681
  0
LINE
  8
0
 10
206.815
 20
121.681
 11
206.815
 21
117.694
  0
LINE
  8
0
 10
206.815
 20
117.694
 11
199.94
 21
117.694
  0
LINE
  8
0
 10
221.675
 20
117.694
 11
221.675
 21
121.681
  0
LINE
  8
0
 10
221.675
 20
121.681
 11
228.55
 21
121.681
  0
LINE
  8
0
 10
228.55
 20
121.681
 11
228.55
 21
117.694
  0
LINE
  8
0
 10
228.55
 20
117.694
 11
221.675
 21
117.694
  0
LINE
  8
0
 10
184.837
 20
86.6937
 11
184.837
 21
90.6812
  0
LINE
  8
0
 10
184.837
 20
90.6812
 11
191.712
 21
90.6812
  0
LINE
  8
0
 10
191.712
 20
90.6812
 11
191.712
 21
86.6937
  0
LINE
  8
0
 10
191.712
 20
86.6937
 11
184.837
 21
86.6937
  0
LINE
  8
0
 10
207.307
 20
86.6937
 11
207.307
 21
90.6812
  0
LINE
  8
0
 10
207.307
 20
90.6812
 11
214.182
 21
90.6812
  0
LINE
  8
0
 10
214.182
 20
90.6812
 11
214.182
 21
86.6937
  0
LINE
  8
0
 10
214.182
 20
86.6937
 11
207.307
 21
86.6937
  0
LINE
  8
0
 10
192.327
 20
83.0687
 11
192.327
 21
87.0562
  0
LINE
  8
0
 10
192.327
 20
87.0562
 11
199.202
 21
87.0562
  0
LINE
  8
0
 10
199.202
 20
87.0562
 11
199.202
 21
83.0687
  0
LINE
  8
0
 10
199.202
 20
83.0687
 11
192.327
 21
83.0687
  0
LINE
  8
0
 10
214.797
 20
83.0687
 11
214.797
 21
87.0562
  0
LINE
  8
0
 10
214.797
 20
87.0562
 11
221.672
 21
87.0562
  0
LINE
  8
0
 10
221.672
 20
87.0562
 11
221.672
 21
83.0687
  0
LINE
  8
0
 10
221.672
 20
83.0687
 11
214.797
 21
83.0687
  0
LINE
  8
0
 10
222.287
 20
79.4437
 11
222.287
 21
83.4312
  0
LINE
  8
0
 10
222.287
 20
83.4312
 11
229.162
 21
83.4312
  0
LINE
  8
0
 10
229.162
 20
83.4312
 11
229.162
 21
79.4437
  0
LINE
  8
0
 10
229.162
 20
79.4437
 11
222.287
 21
79.4437
  0
LINE
  8
0
 10
199.817
 20
79.4437
 11
199.817
 21
83.4312
  0
LINE
  8
0
 10
199.817
 20
83.4312
 11
206.692
 21
83.4312
  0
LINE
  8
0
 10
206.692
 20
83.4312
 11
206.692
 21
79.4437
  0
LINE
  8
0
 10
206.692
 20
79.4437
 11
199.817
 21
79.4437
  0
LINE
  8
0
 10
184.225
 20
48.4437
 11
184.225
 21
52.4312
  0
LINE
  8
0
 10
184.225
 20
52.4312
 11
191.1
 21
52.4312
  0
LINE
  8
0
 10
191.1
 20
52.4312
 11
191.1
 21
48.4437
  0
LINE
  8
0
 10
191.1
 20
48.4437
 11
184.225
 21
48.4437
  0
LINE
  8
0
 10
207.43
 20
48.4437
 11
207.43
 21
52.4312
  0
LINE
  8
0
 10
207.43
 20
52.4312
 11
214.305
 21
52.4312
  0
LINE
  8
0
 10
214.305
 20
52.4312
 11
214.305
 21
48.4437
  0
LINE
  8
0
 10
214.305
 20
48.4437
 11
207.43
 21
48.4437
  0
LINE
  8
0
 10
191.96
 20
44.8187
 11
191.96
 21
48.8062
  0
LINE
  8
0
 10
191.96
 20
48.8062
 11
198.835
 21
48.8062
  0
LINE
  8
0
 10
198.835
 20
48.8062
 11
198.835
 21
44.8187
  0
LINE
  8
0
 10
198.835
 20
44.8187
 11
191.96
 21
44.8187
  0
LINE
  8
0
 10
215.165
 20
44.8187
 11
215.165
 21
48.8062
  0
LINE
  8
0
 10
215.165
 20
48.8062
 11
222.04
 21
48.8062
  0
LINE
  8
0
 10
222.04
 20
48.8062
 11
222.04
 21
44.8187
  0
LINE
  8
0
 10
222.04
 20
44.8187
 11
215.165
 21
44.8187
  0
LINE
  8
0
 10
199.695
 20
41.1937
 11
199.695
 21
45.1812
  0
LINE
  8
0
 10
199.695
 20
45.1812
 11
206.57
 21
45.1812
  0
LINE
  8
0
 10
206.57
 20
45.1812
 11
206.57
 21
41.1937
  0
LINE
  8
0
 10
206.57
 20
41.1937
 11
199.695
 21
41.1937
  0
LINE
  8
0
 10
222.9
 20
41.1937
 11
222.9
 21
45.1812
  0
LINE
  8
0
 10
222.9
 20
45.1812
 11
229.775
 21
45.1812
  0
LINE
  8
0
 10
229.775
 20
45.1812
 11
229.775
 21
41.1937
  0
LINE
  8
0
 10
229.775
 20
41.1937
 11
222.9
 21
41.1937
  0
LINE
  8
0
 10
63
 20
31.375
 11
166
 21
31.375
  0
LINE
  8
0
 10
166
 20
31.375
 11
166
 21
33.5
  0
LINE
  8
0
 10
166
 20
33.5
 11
159
 21
33.5
  0
LINE
  8
0
 10
159
 20
33.5
 11
159
 21
35
  0
LINE
  8
0
 10
159
 20
35
 11
59
 21
35
  0
LINE
  8
0
 10
59
 20
35
 11
59
 21
31.375
  0
LINE
  8
0
 10
59
 20
31.375
 11
55
 21
31.375
  0
LINE
  8
0
 10
55
 20
31.375
 11
55
 21
27.75
  0
LINE
  8
0
 10
55
 20
27.75
 11
63
 21
27.75
  0
LINE
  8
0
 10
63
 20
27.75
 11
63
 21
31.375
  0
LINE
  8
0
 10
162
 20
24.6875
 11
166
 21
24.6875
  0
LINE
  8
0
 10
166
 20
24.6875
 11
166
 21
28.3125
  0
LINE
  8
0
 10
166
 20
28.3125
 11
158
 21
28.3125
  0
LINE
  8
0
 10
158
 20
28.3125
 11
158
 21
24.6875
  0
LINE
  8
0
 10
158
 20
24.6875
 11
55
 21
24.6875
  0
LINE
  8
0
 10
55
 20
24.6875
 11
55
 21
22.5625
  0
LINE
  8
0
 10
55
 20
22.5625
 11
62
 21
22.5625
  0
LINE
  8
0
 10
62
 20
22.5625
 11
62
 21
21.0625
  0
LINE
  8
0
 10
62
 20
21.0625
 11
162
 21
21.0625
  0
LINE
  8
0
 10
162
 20
21.0625
 11
162
 21
24.6875
  0
LINE
  8
0
 10
63
 20
14.375
 11
166
 21
14.375
  0
LINE
  8
0
 10
166
 20
14.375
 11
166
 21
16.5
  0
LINE
  8
0
 10
166
 20
16.5
 11
159
 21
16.5
  0
LINE
  8
0
 10
159
 20
16.5
 11
159
 21
18
  0
LINE
  8
0
 10
159
 20
18
 11
59
 21
18
  0
LINE
  8
0
 10
59
 20
18
 11
59
 21
14.375
  0
LINE
  8
0
 10
59
 20
14.375
 11
55
 21
14.375
  0
LINE
  8
0
 10
55
 20
14.375
 11
55
 21
10.75
  0
LINE
  8
0
 10
55
 20
10.75
 11
63
 21
10.75
  0
LINE
  8
0
 10
63
 20
10.75
 11
63
 21
14.375
  0
LINE
  8
0
 10
162
 20
7.6875
 11
166
 21
7.6875
  0
LINE
  8
0
 10
166
 20
7.6875
 11
166
 21
11.3125
  0
LINE
  8
0
 10
166
 20
11.3125
 11
158
 21
11.3125
  0
LINE
  8
0
 10
158
 20
11.3125
 11
158
 21
7.6875
  0
LINE
  8
0
 10
158
 20
7.6875
 11
55
 21
7.6875
  0
LINE
  8
0
 10
55
 20
7.6875
 11
55
 21
5.5625
  0
LINE
  8
0
 10
55
 20
5.5625
 11
62
 21
5.5625
  0
LINE
  8
0
 10
62
 20
5.5625
 11
62
 21
4.0625
  0
LINE
  8
0
 10
62
 20
4.0625
 11
162
 21
4.0625
  0
LINE
  8
0
 10
162
 20
4.0625
 11
162
 21
7.6875
  0
ENDSEC
  0
SECTION
  2
OBJECTS
  0
DICTIONARY
  0
ENDSEC
  0
EOF
